<svg id="Layer_1" data-name="Layer 1" xmlns="http://www.w3.org/2000/svg" viewBox="0 0 694.2 765.02"><defs><style>.cls-1{fill:#404041;}.cls-2{fill:#003a6f;}.cls-3{fill:#f5881f;}</style></defs><path class="cls-1" d="M3034.23,2865.47c68.58-29.8,132.45-71.57,184.92-125.56a522.92,522.92,0,0,0,69.63-88.83q11.68-18.76,21.75-38.54a345.93,345.93,0,0,0-238.53-95c-191.69,0-347.1,155.4-347.1,347.1a349,349,0,0,0,5.5,61.84,858,858,0,0,0,87.45-5C2892.1,2913.42,2965.55,2895.31,3034.23,2865.47Z" transform="translate(-2724.9 -2446.76)"/><path class="cls-2" d="M3323,2625q-8.31,18.14-18,35.66a544.35,544.35,0,0,1-67.52,96.3c-51.84,59.42-116.77,107.12-187.45,142.43s-147.37,58.69-225.48,71.5q-39.75,6.49-80,9.39c47.61,134.89,176.19,231.55,327.37,231.55,191.7,0,347.1-155.4,347.1-347.1A345.93,345.93,0,0,0,3323,2625Zm-367.42,496.42h-75.12V2982.91q38.51-8.7,75.12-20.64Zm109.86,0h-75.12V2950a746.2,746.2,0,0,0,69.83-30.52c1.76-.88,3.53-1.79,5.29-2.69Zm109.85,0h-75.12v-223.5a644.79,644.79,0,0,0,75.12-51Zm109.86,0H3210V2817.31a573,573,0,0,0,44.45-45.55q16.17-18.45,30.67-38.23Z" transform="translate(-2724.9 -2446.76)"/><path class="cls-3" d="M3323,2625a568.18,568.18,0,0,0,23.7-60.72l43.43,49-11.39-166.48-108.44,126.82,63.67-13.34a556,556,0,0,1-23.45,52.3Q3316.92,2618.6,3323,2625Z" transform="translate(-2724.9 -2446.76)"/></svg>